<svg id="Layer_1" data-name="Layer 1" xmlns="http://www.w3.org/2000/svg"
  viewBox="0 0 488 325"><defs><style>.cls-1,.cls-2,.cls-4,.cls-5{fill:none;}.cls-1,.cls-2,.cls-3,.cls-4,.cls-5,.cls-6{stroke:#000;stroke-miterlimit:10;}.cls-2{stroke-width:0.5px;}.cls-4{stroke-linecap:square;}.cls-5{stroke-width:0.75px;}.cls-6{fill:#fff;}</style></defs><title>Taj</title><path class="cls-1" d="M257.5,240.5h-17V222a19.87,19.87,0,0,1,4-5.5c1.58-1.53,2.91-2.82,4.5-3,2.95-.34,6.39,3.15,8.5,8.5Z"/><path class="cls-1" d="M257.5,283.5h-17V265a19.36,19.36,0,0,1,3-4.5c1.51-1.69,3.38-3.78,5.5-4,3-.32,6.58,3.15,8.5,8.5Z"/><rect class="cls-2" x="216.5" y="185.5" width="62" height="98"/><rect class="cls-2" x="210.5" y="178.5" width="72" height="105"/><rect class="cls-2" x="204.5" y="172.5" width="87" height="111"/><rect class="cls-2" x="200.5" y="165.5" width="96" height="118"/><rect class="cls-2" x="200.5" y="157.5" width="96" height="8"/><path class="cls-2" d="M296.5,157.5h-96v-8a289.88,289.88,0,0,1,96,0Z"/><path class="cls-2" d="M200.5,149.5v-8a232.9,232.9,0,0,1,96,0v8"/><path class="cls-2" d="M200.5,150.67c-1.3-3.13-3.09-7.65-5-13.17-3.81-11-5.75-16.53-6-21-.7-12.79,5.87-23.09,9-28,2.7-4.23,5.42-7.19,10.87-13.13,7-7.62,7.54-7.28,14.13-13.87,3-3,19-18,20-19s10,0,10,0c5.44,4.83,13.15,11.94,22,21,11.49,11.77,17.32,17.8,21,25,1.37,2.67,8.91,17.89,7,35-1.07,9.61-5.54,23.58-6,25-.41,1.26-.76,2.3-1,3"/><ellipse class="cls-1" cx="249.5" cy="37.5" rx="6" ry="5"/><ellipse class="cls-1" cx="248.5" cy="28.5" rx="4" ry="5"/><ellipse class="cls-1" cx="248.5" cy="20" rx="2" ry="3.5"/><path class="cls-3" d="M248,10h0a1,1,0,0,1,1,1v6a0,0,0,0,1,0,0h-2a0,0,0,0,1,0,0V11A1,1,0,0,1,248,10Z"/><path class="cls-1" d="M222.17,62.8a189.86,189.86,0,0,1,51.74-1.08"/><path class="cls-1" d="M235.5,50.5a46.46,46.46,0,0,0,13,2,46.65,46.65,0,0,0,14-2"/><path class="cls-2" d="M191.5,127.5a343.29,343.29,0,0,1,111,1"/><path d="M199.83,126.61c.34,3.78-1.81,6.78-4.71,9-.38.29,0,.94.38.65,3.11-2.33,5.45-5.55,5.08-9.6,0-.47-.79-.48-.75,0Z"/><path d="M200.63,141.38a15,15,0,0,1,2.42-7.88,5.66,5.66,0,0,1,8.42-.95c1.62,1.6,2.08,3.84,4.42,4.75,4.36,1.7,7.88-2.41,10.24-5.42,2.08-2.65,3.85-6.41,8.42-2.07.76.73,1,2.15,1.9,3a8,8,0,0,0,5,2.23,7.7,7.7,0,0,0,4.83-1.21c3.12-2,7.36-10.11,11.69-3,1.55,2.55,2.2,6.9,6,5,2-1,3.4-3,5-4.6a16.67,16.67,0,0,1,2.61-2.28q4.1-1.56,4.77,2c-2.82-3.8,2.59,5.19,2.12,4.78,3.32,2.9,6.35-1.33,8.94-3.63,3-2.66,3.87-4.78,7.76,2.48.77,1.45,0,1.69.91,3a3.65,3.65,0,0,0,3.41,1.79c.48,0,.48-.73,0-.75-4.89-.17-2.5-13.11-9.24-10-4.34,2-7.62,11.58-12.43,3.8-.77-1.25-1.09-4.3-2.7-5-4.64-1.94-7.65,6.26-11,7.45-5.78,2.06-4.85-9.82-11.59-7.61-3.71,1.21-4.77,5.79-8.72,6.83-4.36,1.14-6.49-1.59-8.63-4.65-.67-1-.65-1.72-1.6-2.43-3.83-2.86-7,3.24-9,5.63-3.2,3.73-8.4,5.53-11.76.66a22.5,22.5,0,0,0-2.27-3.36c-1.14-1.12-1.92-1.48-3.5-1.05-4.78,1.3-7,8.25-7.17,12.49,0,.48.72.48.75,0Z"/><path d="M204.26,140.72a5.09,5.09,0,0,1,4.67-4.49c2,0,2.77,1.66,4.24,2.76.38.28.76-.37.38-.65-1-.72-1.69-2.07-2.7-2.62a4.55,4.55,0,0,0-3.29,0,5.92,5.92,0,0,0-4,4.81c-.08.47.65.68.73.2Z"/><path d="M228.05,137.24c.44-1.85,2.18-4.27,4.33-3,1,.6,1.28,1.81,2.41,2.29.44.18.64-.55.2-.73-.94-.39-1.22-1.59-2.05-2.16a3.12,3.12,0,0,0-2.23-.44c-1.92.32-3,2.05-3.38,3.81-.12.47.61.67.72.2Z"/><path d="M249.4,136.3a9.81,9.81,0,0,1,3.82-3.05c2.49-1.09,3.72,1.57,4.92,3.34.27.4.92,0,.65-.38-.86-1.26-2.28-4.29-4.15-4.2-2.21.1-4.5,2.15-5.77,3.76-.3.38.23.91.53.53Z"/><path d="M267.82,137.44c.62-1.05,2.16-3.31,3.59-3.38,1.68-.07,2.32,2.44,2.93,3.68.21.43.86,0,.64-.38-.67-1.37-1.36-4.16-3.3-4.09s-3.62,2.28-4.51,3.79a.38.38,0,0,0,.65.38Z"/><path d="M285.36,139.58a4.79,4.79,0,0,1,3.17-2.65,3.61,3.61,0,0,1,2.06,0c1.26.6,1.36,2,1.27,3.2,0,.49.72.48.75,0,.16-2.26-.56-4.09-3.05-4.07a5.46,5.46,0,0,0-4.84,3.15c-.21.44.44.82.64.38Z"/><path d="M297,127.88a5.7,5.7,0,0,0,3.77,5.92c.46.17.66-.56.2-.72a4.94,4.94,0,0,1-3.22-5.2c.05-.48-.7-.48-.75,0Z"/><path d="M277.19,125.21c.3,1.56,1.82,3.7,3.45,4.12,2.53.65,4.38-2.13,6.71-2.48.47-.07.27-.79-.2-.72-1.53.23-2.47,1.17-3.79,1.86-1.59.84-2.79.85-4-.45a5.31,5.31,0,0,1-1.43-2.53c-.09-.47-.82-.27-.73.2Z"/><path d="M258.13,124.12c.85,1.62,1.93,3.54,3.93,3.88,2.28.4,4.36-1.91,6-3.13.38-.29,0-.94-.38-.65a26.33,26.33,0,0,1-3.7,2.7c-2.58,1.26-4.18-1.2-5.22-3.18-.22-.43-.87,0-.64.38Z"/><path d="M236.71,123.85c.33,2.47,3,5.49,5.6,5.75,3.13.31,5-3.26,6.16-5.63.2-.43-.44-.81-.65-.37-1,2.12-2.49,5.14-5.15,5.16-2.4,0-4.92-2.78-5.24-5.11-.07-.48-.79-.27-.72.2Z"/><path d="M210.89,125.5c1.75,2.26,4.11,5.12,7.27,5.08,4.14,0,5.31-4.23,8.44-5.93.43-.23.05-.88-.37-.65-2.22,1.21-3.16,3.73-5.38,5-4.07,2.31-7.16-1.1-9.43-4-.3-.38-.82.16-.53.54Z"/><path class="cls-4" d="M216.5,220.5A88.23,88.23,0,0,1,230,206c7.63-6.5,12.19-10.38,18-10,5.4.36,9.34,4.58,17,13a125.1,125.1,0,0,1,13,17"/><path class="cls-5" d="M216.5,214.5A88.23,88.23,0,0,1,230,200c7.63-6.5,12.19-10.38,18-10,5.4.36,9.34,4.58,17,13a135.46,135.46,0,0,1,13.5,17.5"/><path d="M216.49,204.22a10.53,10.53,0,0,0,4.7.92c1.45,0,2.83.05,3.9-1,.34-.35-.19-.88-.53-.53-1.59,1.63-5.9.89-7.69,0-.43-.21-.81.44-.38.65Z"/><path d="M225.49,204a6,6,0,0,0-.33-4.48c-.86-1.86-6.46-6.38-2.81-8.34.42-.22.05-.87-.38-.64a3,3,0,0,0-1.39,3.86c1.25,3.52,5.5,4.91,4.18,9.4a.38.38,0,0,0,.73.2Z"/><path d="M222.33,191.21c1.61-.68,3.48.49,4.38,1.77.29.41.55.83.86,1.22a9.3,9.3,0,0,0,2,1.84c1.48,1,3,1.52,4.72.75.43-.21.05-.85-.38-.65-3.57,1.65-5.61-2.89-7.52-4.86a3.64,3.64,0,0,0-4.28-.79c-.44.18-.25.91.2.72Z"/><path d="M234.51,196.42c1.35-3.25-.61-7.27,2.11-10a.38.38,0,0,0-.53-.53c-2.94,2.92-.86,6.81-2.3,10.3-.19.45.54.64.72.2Z"/><path d="M236.51,186.48c1.69-.17,2.38,1.08,3.33,2.23a6.86,6.86,0,0,0,2.63,2.15c.44.19.82-.46.38-.64-1.56-.66-2.41-2-3.47-3.26a2.9,2.9,0,0,0-2.87-1.23c-.48.05-.48.8,0,.75Z"/><path d="M242.92,190.94a2.89,2.89,0,0,0,2.18-1.52,11,11,0,0,0,1.61-3.4.38.38,0,0,0-.73-.2c-.35,1.25-1.44,4.32-3.06,4.37a.38.38,0,0,0,0,.75Z"/><path d="M251,191a4.66,4.66,0,0,0,3.63-1.48c.55-.59.93-1.34,1.52-1.9.75-.71,1.74-.51,2.6-.93.44-.21.06-.86-.38-.65s-1.06.11-1.57.28a3.58,3.58,0,0,0-1.48,1.1c-1.31,1.49-2.06,2.87-4.32,2.83a.38.38,0,0,0,0,.75Z"/><path d="M258.36,186.51c1.66,2.42,1.47,5.15,1.39,7.94,0,1.22-.29,2.54.82,3.28.4.28.77-.37.38-.64-1.24-.84-.3-5.39-.44-6.74a9,9,0,0,0-1.5-4.22c-.28-.39-.93,0-.65.38Z"/><path d="M260.83,197.83c1.81.53,2.9-.85,3.95-2.16,2.18-2.69,4.64-6.16,8.63-5.18a.38.38,0,0,0,.2-.73,6.46,6.46,0,0,0-5.4,1.12c-1.64,1.14-5,6.88-7.18,6.23a.37.37,0,0,0-.2.72Z"/><path d="M273.31,190.45a8.74,8.74,0,0,1-.69,7c-.8,1.46-1.88,2.72-2.58,4.24a7.74,7.74,0,0,0-.43,6.14c.16.45.89.26.73-.2-1.57-4.48,1.87-7.33,3.61-11,1-2.13.64-4.18.08-6.39-.11-.47-.84-.27-.72.19Z"/><path d="M269.63,207.92c.21,1.56,2.46,1.27,3.58,1a11.4,11.4,0,0,0,5.4-3.26c.34-.35-.19-.88-.53-.53a13,13,0,0,1-3.14,2.31c-.51.26-4.37,1.84-4.58.25-.07-.47-.79-.27-.73.2Z"/><polygon class="cls-3" points="216.84 185.5 216.5 185.63 216.5 186 278 185.95 278 185.58 216.84 185.5"/><rect class="cls-1" x="154.5" y="193.5" width="46" height="90"/><polygon class="cls-1" points="154.5 283.5 125.5 283.5 125.5 196.5 154.5 193.5 154.5 283.5"/><rect class="cls-1" x="154.5" y="186.5" width="46" height="7"/><polygon class="cls-1" points="154.5 193.5 125.5 196.5 125.5 190.5 154.5 187.5 154.5 193.5"/><rect class="cls-1" x="154.5" y="179.5" width="46" height="7"/><polygon class="cls-1" points="154.5 186.5 125.5 189.5 125.5 183.5 154.5 180.5 154.5 186.5"/><path class="cls-1" d="M154.5,179.5v-14s-1-5,6-6"/><path class="cls-1" d="M200.5,179.5h-40v-24c0-11.6,7.4-21,19-21h0a21,21,0,0,1,21,21Z"/><path class="cls-1" d="M160.5,159.5a100.75,100.75,0,0,1,40,0"/><path class="cls-1" d="M160.5,154.5a100.75,100.75,0,0,1,40,0"/><path class="cls-1" d="M174.5,135.5a6,6,0,0,1,12,0"/><path class="cls-1" d="M177.5,130c0-4.69,1.34-8.5,3-8.5s3,3.81,3,8.5"/><path class="cls-1" d="M166.5,165.5h0a4,4,0,0,1,4,4v10a0,0,0,0,1,0,0h-8a0,0,0,0,1,0,0v-10A4,4,0,0,1,166.5,165.5Z"/><path class="cls-1" d="M178.5,165.5h0a5,5,0,0,1,5,5v8a1,1,0,0,1-1,1h-8a1,1,0,0,1-1-1v-8A5,5,0,0,1,178.5,165.5Z"/><path class="cls-1" d="M192.5,165.5h0a4,4,0,0,1,4,4v10a0,0,0,0,1,0,0h-8a0,0,0,0,1,0,0v-10A4,4,0,0,1,192.5,165.5Z"/><rect class="cls-1" x="130.5" y="236.5" width="21" height="8"/><rect class="cls-1" x="162.5" y="235.5" width="32" height="9"/><path class="cls-1" d="M149.5,283.5h-18v-24a29,29,0,0,1,9-9h0a14.87,14.87,0,0,1,9,9Z"/><path class="cls-1" d="M188.5,283.5h-24v-21a17.93,17.93,0,0,1,12-12h0a26.16,26.16,0,0,1,12,12Z"/><path class="cls-1" d="M149.5,236.5h-18v-23a27.65,27.65,0,0,1,5-6,27,27,0,0,1,4-3h0a14.87,14.87,0,0,1,9,9Z"/><path class="cls-1" d="M189.5,235.5h-25V214A37.13,37.13,0,0,1,177,201.5h0a21.64,21.64,0,0,1,9.5,7,20.9,20.9,0,0,1,3,5.5Z"/><line class="cls-1" x1="216.5" y1="240.5" x2="278.5" y2="240.5"/><path class="cls-1" d="M337,181.5H296.5v-24c0-11.6,7.49-21,19.24-21h0a21.13,21.13,0,0,1,21.26,21Z"/><path class="cls-1" d="M297,161.5a100.75,100.75,0,0,1,40,0c4.5,1,3.5,6,3.5,6l-1,14"/><path class="cls-1" d="M297,156.5a100.75,100.75,0,0,1,40,0"/><path class="cls-1" d="M309.78,137.5a5.64,5.64,0,1,1,11.25,0"/><path class="cls-1" d="M312.59,132c0-4.69,1.26-8.5,2.82-8.5s2.81,3.81,2.81,8.5"/><path class="cls-1" d="M303.28,167.5h0a3.75,3.75,0,0,1,3.75,3.75V181.5a0,0,0,0,1,0,0h-7.5a0,0,0,0,1,0,0V171.25A3.75,3.75,0,0,1,303.28,167.5Z"/><path class="cls-1" d="M316.53,167.5h0a4.69,4.69,0,0,1,4.69,4.69v8.38a.94.94,0,0,1-.94.94h-7.5a.94.94,0,0,1-.94-.94v-8.38a4.69,4.69,0,0,1,4.69-4.69Z"/><path class="cls-1" d="M329.66,167.5h0a3.75,3.75,0,0,1,3.75,3.75V181.5a0,0,0,0,1,0,0h-7.5a0,0,0,0,1,0,0V171.25A3.75,3.75,0,0,1,329.66,167.5Z"/><rect class="cls-1" x="296.5" y="181.5" width="43" height="102"/><rect class="cls-1" x="302.5" y="237.5" width="30" height="8"/><rect class="cls-1" x="344.5" y="237.5" width="23" height="10"/><path class="cls-1" d="M328.5,237.5h-25V217a25.25,25.25,0,0,1,6-8.5c2-1.87,4.06-3.76,6.5-4,4.45-.45,9.54,4.66,12.5,12.5Z"/><path class="cls-1" d="M328.5,283.5h-23V262c1.12-1.2,2.88-3.11,5-5.5,4.19-4.72,4.89-5.82,6.5-6,2.84-.31,5.4,2.61,7.5,5a22.89,22.89,0,0,1,4,6.5Z"/><path class="cls-1" d="M363.5,283.5h-19V260a25.4,25.4,0,0,1,5-6.5c1.81-1.69,3-2.81,4.5-3,3.21-.41,7,3.53,9.5,9.5Z"/><polygon class="cls-1" points="339.5 181.5 370.5 185.5 370.5 283.5 339.5 283.5 339.5 181.5"/><line class="cls-1" x1="339.5" y1="187.5" x2="370.5" y2="191.5"/><line class="cls-1" x1="339.5" y1="193.5" x2="370.5" y2="197.5"/><line class="cls-1" x1="296.5" y1="187.5" x2="339.5" y2="187.5"/><line class="cls-1" x1="296" y1="193.5" x2="339" y2="193.5"/><path class="cls-1" d="M364.5,237.5h-19V215c2.39-6,6.24-9.9,9.5-9.5,1.88.23,3.49,1.91,5.5,4a25.15,25.15,0,0,1,4,5.5Z"/><path class="cls-1" d="M35,91.5h0a9.5,9.5,0,0,1,9.5,9.5V283.5h-29L25.5,101A9.5,9.5,0,0,1,35,91.5Z"/><rect class="cls-1" x="13.5" y="232.5" width="35" height="7" rx="3.5" ry="3.5"/><rect class="cls-1" x="19.5" y="177.5" width="28" height="6" rx="3" ry="3"/><path class="cls-1" d="M46.5,125.5a72.5,72.5,0,0,0-24,0,2,2,0,0,1-1.41-.59,2,2,0,0,1-.59-1.41v-1a2,2,0,0,1,2-2,72.5,72.5,0,0,1,24,0,2,2,0,0,1,1.41.59,2,2,0,0,1,.59,1.41v1A2,2,0,0,1,46.5,125.5Z"/><ellipse class="cls-6" cx="34.5" cy="106" rx="15.5" ry="3"/><path class="cls-3" d="M26,120a7,7,0,0,1,1-8,7.23,7.23,0,0,1,6-2,5.29,5.29,0,0,0-3,6,5.06,5.06,0,0,0,3,3Z"/><path class="cls-3" d="M35,119a8,8,0,0,1,0-5,8.5,8.5,0,0,1,5-5,7.86,7.86,0,0,0-3,6,7.63,7.63,0,0,0,2,5Z"/><path class="cls-6" d="M35,86h0a1,1,0,0,1,1,1v5a0,0,0,0,1,0,0H34a0,0,0,0,1,0,0V87A1,1,0,0,1,35,86Z"/><path class="cls-1" d="M84.9,142.05h0a7,7,0,0,1,7,7V283.5H70.48l7.4-134.45A7,7,0,0,1,84.9,142.05Z"/><rect class="cls-1" x="69" y="245.93" width="25.89" height="5.16" rx="2.58" ry="2.58"/><rect class="cls-1" x="73.44" y="205.41" width="20.71" height="4.42" rx="2.21" ry="2.21"/><path class="cls-1" d="M93.41,167.1a53.59,53.59,0,0,0-17.75,0,1.52,1.52,0,0,1-1-.43,1.47,1.47,0,0,1-.43-1v-.74a1.47,1.47,0,0,1,1.48-1.47,53.59,53.59,0,0,1,17.75,0,1.53,1.53,0,0,1,1,.43,1.47,1.47,0,0,1,.43,1v.74A1.47,1.47,0,0,1,93.41,167.1Z"/><ellipse class="cls-6" cx="84.53" cy="152.73" rx="11.47" ry="2.21"/><path class="cls-3" d="M78.25,163.05a5.19,5.19,0,0,1,.74-5.9,5.37,5.37,0,0,1,4.43-1.47,3.89,3.89,0,0,0-2.21,4.42,3.71,3.71,0,0,0,2.21,2.21Z"/><path class="cls-3" d="M84.9,162.31a6,6,0,0,1,0-3.68,6.33,6.33,0,0,1,3.7-3.69,5.83,5.83,0,0,0-2.22,4.42,5.67,5.67,0,0,0,1.48,3.69Z"/><path class="cls-6" d="M84.9,138h0a.74.74,0,0,1,.74.74v3.68a0,0,0,0,1,0,0H84.16a0,0,0,0,1,0,0v-3.68A.74.74,0,0,1,84.9,138Z"/><path class="cls-1" d="M456.33,91.37h0a9.51,9.51,0,0,0-9.5,9.5v182.5h29l-10-182.51A9.5,9.5,0,0,0,456.33,91.37Z"/><rect class="cls-1" x="442.83" y="232.38" width="35" height="7" rx="3.5" ry="3.5" transform="translate(920.67 471.75) rotate(180)"/><rect class="cls-1" x="443.83" y="177.37" width="28" height="6" rx="3" ry="3" transform="translate(915.67 360.75) rotate(-180)"/><path class="cls-1" d="M444.83,125.37a73.33,73.33,0,0,1,12-1,72.26,72.26,0,0,1,12,1,2.06,2.06,0,0,0,1.42-.59,2,2,0,0,0,.58-1.41v-1a2,2,0,0,0-2-2,72,72,0,0,0-12-1,73.41,73.41,0,0,0-12,1,2.06,2.06,0,0,0-1.41.59,2,2,0,0,0-.59,1.41v1A2,2,0,0,0,444.83,125.37Z"/><ellipse class="cls-6" cx="456.83" cy="105.87" rx="15.5" ry="3"/><path class="cls-3" d="M465.33,119.87a7,7,0,0,0-1-8,7.31,7.31,0,0,0-6-2,5.3,5.3,0,0,1,3,6,5,5,0,0,1-3,3Z"/><path class="cls-3" d="M456.33,118.87a8,8,0,0,0,0-5,8.51,8.51,0,0,0-5-5,7.88,7.88,0,0,1,3,6,7.55,7.55,0,0,1-2,5Z"/><path class="cls-6" d="M455.33,85.87h2a0,0,0,0,1,0,0v5a1,1,0,0,1-1,1h0a1,1,0,0,1-1-1v-5A0,0,0,0,1,455.33,85.87Z" transform="translate(912.67 177.75) rotate(-180)"/><path class="cls-1" d="M409.43,141.93h0a7,7,0,0,0-7,7V283.37h21.45l-7.39-134.44A7,7,0,0,0,409.43,141.93Z"/><rect class="cls-1" x="399.44" y="245.8" width="25.89" height="5.16" rx="2.58" ry="2.58" transform="translate(824.78 496.76) rotate(-180)"/><rect class="cls-1" x="401.18" y="205.28" width="20.71" height="4.42" rx="2.21" ry="2.21" transform="translate(823.08 414.99) rotate(180)"/><path class="cls-1" d="M400.92,167a54.37,54.37,0,0,1,17.76,0,1.47,1.47,0,0,0,1-.43,1.44,1.44,0,0,0,.44-1v-.74a1.48,1.48,0,0,0-1.48-1.47,53.65,53.65,0,0,0-17.76,0,1.5,1.5,0,0,0-1,.43,1.48,1.48,0,0,0-.44,1v.74A1.47,1.47,0,0,0,400.92,167Z"/><ellipse class="cls-6" cx="409.8" cy="152.61" rx="11.47" ry="2.21"/><path class="cls-3" d="M416.09,162.92a5.18,5.18,0,0,0-.74-5.89,5.36,5.36,0,0,0-4.44-1.47,3.89,3.89,0,0,1,2.22,4.42,3.78,3.78,0,0,1-2.22,2.21Z"/><path class="cls-3" d="M409.43,162.19a5.89,5.89,0,0,0,0-3.69,6.26,6.26,0,0,0-3.7-3.68,5.81,5.81,0,0,1,2.22,4.42,5.58,5.58,0,0,1-1.48,3.68Z"/><path class="cls-6" d="M408.69,137.87h1.48a0,0,0,0,1,0,0v3.68a.74.74,0,0,1-.74.74h0a.74.74,0,0,1-.74-.74v-3.68a0,0,0,0,1,0,0Z" transform="translate(818.86 280.17) rotate(-180)"/><rect class="cls-1" x="12.5" y="283.5" width="470" height="7" rx="3.5" ry="3.5"/><rect class="cls-1" x="13.5" y="290.5" width="467" height="24"/><path d="M249.42,186.82a4.82,4.82,0,0,1,1,2.63,1.75,1.75,0,0,0,.69,1.36c.39.28.76-.37.38-.65s-.41-1.72-.61-2.3a5.44,5.44,0,0,0-.89-1.57c-.29-.38-.82.16-.53.53Z"/><path d="M216.2,202.05a11.27,11.27,0,0,0,6.41.78c.47-.08.27-.8-.2-.72a10.32,10.32,0,0,1-5.83-.71c-.44-.18-.82.46-.38.65Z"/><path d="M219.92,189.16c2.8-.76,6.62-.09,8.5,2.22.94,1.15,1.62,2.31,3,3,.42.23.8-.42.37-.64-2-1.08-2.71-3.57-4.8-4.61a10.93,10.93,0,0,0-7.25-.71.37.37,0,0,0,.2.72Z"/><path d="M232,194.42c2.49-1.15,1.61-6.11,1.6-8.17a.38.38,0,0,0-.75,0c0,1.25,0,2.5,0,3.75s.08,3.16-1.23,3.77c-.44.2-.06.85.37.65Z"/><path d="M240.73,186.42a2.1,2.1,0,0,0,1.82,2.13,1.64,1.64,0,0,0,1.37-.44c.49-.49.21-1.11.49-1.67s-.43-.81-.65-.38c-.3.62,0,1.64-.89,1.74a1.33,1.33,0,0,1-1.39-1.38.38.38,0,0,0-.75,0Z"/><path d="M251.2,186.58a1.52,1.52,0,0,0,1.52,1.89c1.27,0,2-1.17,2.57-2.16.23-.42-.42-.8-.65-.38a3.86,3.86,0,0,1-1.19,1.54c-.58.37-1.8.28-1.53-.69a.37.37,0,0,0-.72-.2Z"/><path d="M261.15,186.4a11.29,11.29,0,0,1,.66,4,16.41,16.41,0,0,0-.09,3.21c.09.47.81.27.73-.2-.24-1.33.19-2.7.09-4.05a12.55,12.55,0,0,0-.67-3.15c-.16-.46-.88-.26-.72.2Z"/><path d="M262.36,194.08c1.77-.61,2.7-2,3.92-3.31a9.79,9.79,0,0,1,8.14-3.16c.48,0,.48-.71,0-.75a10.59,10.59,0,0,0-6.32,1.43c-2.24,1.34-3.44,4.2-5.93,5.06-.46.16-.26.89.19.73Z"/><path d="M274.44,187.54c4.51,4.53-1.76,12.9-2.44,18-.06.48.69.48.75,0C273.48,200.06,280,192,275,187a.38.38,0,0,0-.53.53Z"/><path d="M272.32,206.11c.79.62,1.7-.13,2.45-.51a14.86,14.86,0,0,0,3.59-2.07c.35-.34-.18-.87-.53-.53a9.27,9.27,0,0,1-2.31,1.37c-.44.22-2.32,1.49-2.67,1.21s-.91.23-.53.53Z"/><path d="M218.2,187.89a7.92,7.92,0,0,0-1.38,5.32c.27,2.42,2.19,4.29,2.19,6.73a.38.38,0,0,0,.75,0,9.09,9.09,0,0,0-1.32-4.11,7.27,7.27,0,0,1,.4-7.56c.27-.41-.38-.78-.64-.38Z"/><path d="M218.9,199.83c-.52.7-1.55.37-2.23.16-.46-.14-.66.59-.2.73,1.08.33,2.31.51,3.08-.51.29-.39-.37-.76-.65-.38Z"/><path d="M218.7,188.52c1.54-1.86,6.87-.79,8.56.3,1.38.89,2.24,2.07,3.89,2.48a.37.37,0,0,0,.2-.72c-2.69-.67-4-3.14-6.95-3.54-1.75-.23-5-.57-6.23,1-.3.37.22.9.53.53Z"/><path d="M231.52,191.21a1.37,1.37,0,0,0,1.1-1.45,17.21,17.21,0,0,0-.23-3.44c-.07-.47-.79-.27-.73.2.09.63.7,3.82-.34,4-.47.07-.27.8.2.73Z"/><path d="M263.29,186.59c0,.8,0,1.6,0,2.4a1.18,1.18,0,0,0,.44,1.1c.38.29.76-.36.37-.65-.23-.17-.06-1.07-.06-1.33v-1.52a.38.38,0,0,0-.75,0Z"/><path d="M264.07,190.22c1.38.08,2.1-1.26,3.14-2a15.51,15.51,0,0,1,5-1.9c.47-.11.27-.84-.2-.72a20.26,20.26,0,0,0-3.86,1.26,9.07,9.07,0,0,0-1.67,1c-.66.5-1.46,1.63-2.37,1.58-.48,0-.48.73,0,.75Z"/><path d="M275.71,186.75c2.81,1.72,1.48,7.83.83,10.16-.57,2-1.69,3.79-1.6,5.93,0,.48.77.48.75,0-.09-2.2,1.19-4.18,1.72-6.26a22.61,22.61,0,0,0,.67-5c.05-2.14,0-4.29-2-5.49-.41-.26-.79.39-.38.64Z"/><path d="M275.48,203.38a3.85,3.85,0,0,0,2.85-1.26c.36-.32-.17-.84-.53-.53a3.08,3.08,0,0,1-2.32,1c-.47-.06-.47.69,0,.75Z"/><path d="M274.33,187.37a.38.38,0,0,0,0-.75.38.38,0,0,0,0,.75Z"/><path d="M274.67,187.79a.38.38,0,0,0,0-.75.38.38,0,0,0,0,.75Z"/><path d="M219.2,188.91c-3.35,5.33,4.29,8.37,2.72,13.47-.14.46.59.66.73.2,1.55-5.07-5.92-8.32-2.8-13.29.26-.41-.39-.78-.65-.38Z"/><path d="M219.75,189.29a.38.38,0,0,0,0-.75.38.38,0,0,0,0,.75Z"/><path d="M219.42,189.29a.38.38,0,0,0,0-.75.38.38,0,0,0,0,.75Z"/><path d="M224.13,192.91a1.32,1.32,0,0,0-2,1.58c.3.95,1.54,1.49,2.19,2.13,1.28,1.27,2.9,3.31,2.65,5.2-.06.48.69.47.75,0,.21-1.61-.6-2.83-1.53-4.09a15,15,0,0,0-1.34-1.64c-.26-.26-.62-.48-.86-.76l-.26-.19c-.53-.29-.54-.82,0-1.58a.38.38,0,0,0,.38-.65Z"/><path d="M224,193.51c1.59.26,2.72,2.22,3.76,3.3a6.52,6.52,0,0,0,3.24,2c.47.11.67-.61.2-.72-1.8-.42-2.9-1.79-4.06-3.11-.79-.9-1.7-2-2.94-2.19-.47-.08-.67.64-.2.72Z"/><path d="M236.09,195c.73-1.38.35-3.19.8-4.69.19-.65.22-1.19,1-1.31s.83.19,1.32.56l2.4,1.8c.39.29.76-.36.38-.64-1-.77-2-1.63-3.1-2.33a1.42,1.42,0,0,0-1.82-.09,4.84,4.84,0,0,0-1,2.44c-.27,1.21,0,2.79-.55,3.88-.22.42.42.8.65.38Z"/><path d="M245.44,190.45c.83-.39,1-1.57,1.43-2.3.13-.23.36-.61.64-.69.46-.12.94.28,1.18.63a7.92,7.92,0,0,1,.69,1.93c.16.45.88.26.72-.2-.41-1.21-.74-3-2.36-3.12a1.48,1.48,0,0,0-1.28.68c-.46.62-.69,2.09-1.4,2.43-.44.2-.06.85.38.64Z"/><path d="M253.33,191.83l2.27-1.73a5.75,5.75,0,0,1,1-.76.87.87,0,0,1,1.16-.14c.8-.11,1.09.26.86,1.12.07,1.81-1,3.37-.82,5.18.05.47.8.48.75,0-.16-1.46.62-2.68.79-4.09.11-.85.22-2.54-.58-3.12a1.92,1.92,0,0,0-1.91,0,22.53,22.53,0,0,0-3.92,2.85c-.38.29,0,.94.38.65Z"/><path d="M261.49,199.52c4.44.16,4.77-4.44,8.06-6.15q1.89-1.83,2.07,2.81a16.64,16.64,0,0,1-1,1.49,38,38,0,0,0-2.22,3.25,8.08,8.08,0,0,0-1.09,4.91c.05.47.8.48.75,0-.42-3.92,2.54-6.12,4.18-9.27.61-1.16,1.22-3.05.09-4.15s-2.27-.41-3.29.33c-2.68,1.94-3.63,6.17-7.57,6-.49,0-.49.73,0,.75Z"/><path d="M271.55,210.9c2.66.81,5.33-.82,6.9-2.94.29-.39-.37-.76-.65-.38-1.37,1.85-3.74,3.3-6.05,2.6a.37.37,0,0,0-.2.72Z"/><path d="M237.35,51.35a36.17,36.17,0,0,0-9.07,9.95c-.26.41.39.78.64.37A35.19,35.19,0,0,1,237.73,52c.38-.29,0-.94-.38-.65Z"/><path d="M240.1,51.47c-1.23,1.71-2.9,3-4.18,4.72a22.14,22.14,0,0,0-2.72,4.75c-.19.44.45.83.64.38A21.85,21.85,0,0,1,237.05,56c1.18-1.43,2.61-2.62,3.7-4.13.28-.39-.37-.76-.65-.37Z"/><path d="M243.23,52.27a6.94,6.94,0,0,0-2.88,2.85c-1.1,1.79-2.17,3.6-3.25,5.39a.38.38,0,0,0,.65.38l2.6-4.31c.89-1.48,1.65-2.88,3.26-3.66.43-.22,0-.86-.38-.65Z"/><path d="M245.3,52.74c.16,1.29-1.42,2.86-2,3.94a30.73,30.73,0,0,0-1.73,3.5c-.19.44.45.82.64.38a30.87,30.87,0,0,1,2.31-4.46c.67-1.05,1.73-2,1.57-3.36-.05-.48-.8-.48-.75,0Z"/><path d="M259.3,51.84a15.42,15.42,0,0,1,6.6,8.88.37.37,0,0,0,.72-.2,16.13,16.13,0,0,0-6.94-9.32c-.41-.26-.79.39-.38.64Z"/><path d="M257.25,52.5A14.82,14.82,0,0,1,260.78,60c.08.48.8.28.72-.2a15.55,15.55,0,0,0-3.72-7.8c-.32-.36-.85.17-.53.53Z"/><path d="M254.16,52.84a11.9,11.9,0,0,1,3.51,7c.06.47.79.27.72-.2a12.45,12.45,0,0,0-3.7-7.34.38.38,0,0,0-.53.53Z"/><path d="M251.28,52.93c1.27,2.22,2.49,4.47,2.45,7.09a.38.38,0,0,0,.75,0c.05-2.75-1.22-5.14-2.55-7.46a.37.37,0,0,0-.65.37Z"/><path d="M248,52.6a13.67,13.67,0,0,0-2.22,7.52.38.38,0,0,0,.75,0A12.87,12.87,0,0,1,248.63,53c.26-.41-.38-.78-.65-.38Z"/><path d="M249.2,52.92a18.38,18.38,0,0,0-.79,6.95c0,.48.79.48.75,0a17.56,17.56,0,0,1,.77-6.75c.14-.46-.58-.66-.73-.2Z"/><path d="M249.88,52.81a23.9,23.9,0,0,1,1.21,7.07c0,.48.77.48.75,0a24.65,24.65,0,0,0-1.24-7.27c-.15-.45-.88-.26-.72.2Z"/><path d="M245.39,41.79a31.45,31.45,0,0,0-8.24,8.58c-.28.4.37.78.64.38a30.65,30.65,0,0,1,8-8.32c.4-.27,0-.92-.37-.64Z"/><path d="M247.31,42.13c-2.52,2.8-5.43,5.37-6.61,9.07-.15.46.57.65.72.2,1.14-3.56,4-6,6.42-8.74.32-.36-.21-.89-.53-.53Z"/><path d="M248.76,42.89c-1,3.19-3.53,5.61-4.18,8.92-.09.47.63.68.72.2.65-3.3,3.22-5.73,4.18-8.92a.37.37,0,0,0-.72-.2Z"/><path d="M251,42.32c2.45,2.55,5.76,5.15,6.53,8.76.1.48.82.28.72-.19-.79-3.76-4.18-6.46-6.72-9.1-.33-.35-.86.19-.53.53Z"/><path d="M250.05,42.94a13,13,0,0,1,3.2,8.81.38.38,0,0,0,.75,0,13.76,13.76,0,0,0-3.42-9.34c-.32-.36-.84.17-.53.53Z"/><path d="M249,42.73a29.13,29.13,0,0,1,.68,9c0,.49.71.48.75,0a29.79,29.79,0,0,0-.7-9.22c-.11-.47-.84-.27-.73.2Z"/><rect class="cls-1" x="125.5" y="161.5" width="5" height="21"/><rect class="cls-1" x="149.5" y="160.5" width="2" height="20"/><rect class="cls-1" x="140.5" y="167.5" width="4" height="14"/><path d="M125.89,161.21a2,2,0,0,1,2.39-2.19,2.54,2.54,0,0,1,1.94,2.55c0,.48.77.49.75,0a3.27,3.27,0,0,0-3.06-3.35,2.71,2.71,0,0,0-2.74,3.19c.07.47.79.27.72-.2Z"/><path d="M140.85,167c-.08-.29.32-.77.47-1a1.72,1.72,0,0,1,1.1-.8c1-.11,1.61,1.25,1.89,2,.16.45.88.26.72-.2-.4-1.14-1.3-2.83-2.76-2.56-1,.18-2.44,1.63-2.14,2.7a.37.37,0,0,0,.72-.19Z"/><path d="M149.82,160.36c.06-.33.32-1,.76-.94s.54.73.59,1.05c.08.48.8.28.72-.2-.11-.7-.45-1.6-1.31-1.6s-1.35.79-1.49,1.49c-.09.48.63.68.73.2Z"/><path d="M150.88,158.69v-.31a.38.38,0,0,0-.75,0v.31a.38.38,0,0,0,.75,0Z"/><path d="M150.81,158.75V158a.38.38,0,0,0-.75,0v.75a.38.38,0,0,0,.75,0Z"/><path d="M128.14,158.44c0-.58,0-1.15,0-1.73l-.37.38h.09l-.32-.19c.19.27.1,1,.1,1.33s.67.53.74.1a3.81,3.81,0,0,0-.11-1.68.37.37,0,0,0-.72.2,2.91,2.91,0,0,1,.1,1.28l.74.1c0-.58.19-1.81-.62-1.9a.38.38,0,0,0-.38.37c0,.58,0,1.15,0,1.73s.78.48.75,0Z"/><path d="M142.94,164.5v-1.31a.38.38,0,0,0-.75,0v1.31a.38.38,0,0,0,.75,0Z"/><path d="M142.25,165.09c.63-.39.46-1.46.49-2.09,0-.48-.73-.48-.75,0l0,.81c0,.12,0,.56-.08.63-.4.26,0,.91.38.65Z"/><rect class="cls-1" x="133.5" y="168.5" width="4" height="14"/><path d="M133.85,168c-.08-.29.32-.77.47-1a1.72,1.72,0,0,1,1.1-.8c1-.11,1.61,1.25,1.89,2,.16.45.88.26.72-.2-.4-1.14-1.3-2.83-2.76-2.56-1,.18-2.44,1.63-2.14,2.7a.37.37,0,0,0,.72-.19Z"/><path d="M135.94,165.5v-1.31a.38.38,0,0,0-.75,0v1.31a.38.38,0,0,0,.75,0Z"/><path d="M135.25,166.09c.63-.39.46-1.46.49-2.09,0-.48-.73-.48-.75,0l0,.81c0,.12,0,.56-.08.63-.4.26,0,.91.38.65Z"/><rect class="cls-1" x="363.51" y="163.5" width="5" height="21" transform="translate(732.03 348) rotate(-180)"/><rect class="cls-1" x="342.51" y="161.5" width="2" height="20" transform="translate(687.03 343) rotate(-180)"/><rect class="cls-1" x="349.51" y="168.5" width="4" height="14" transform="translate(703.03 351) rotate(-180)"/><path d="M368.85,163.41a2.72,2.72,0,0,0-2.74-3.19,3.28,3.28,0,0,0-3.07,3.35.38.38,0,0,0,.75,0,2.54,2.54,0,0,1,1.94-2.55,2,2,0,0,1,2.39,2.19c-.06.47.66.67.73.2Z"/><path d="M353.89,168.22c.29-1.07-1.14-2.52-2.14-2.7-1.46-.27-2.36,1.42-2.76,2.56-.17.45.56.65.72.2.27-.77.89-2.13,1.88-2a1.72,1.72,0,0,1,1.1.8c.15.2.55.68.47,1a.38.38,0,0,0,.73.19Z"/><path d="M344.92,161.16a1.72,1.72,0,0,0-1.49-1.49c-.86,0-1.19.9-1.31,1.6-.08.48.64.68.72.2.06-.32.13-1,.59-1.05s.7.61.77.94.81.28.72-.2Z"/><path d="M343.89,159.69v-.32a.38.38,0,0,0-.75,0v.32a.38.38,0,0,0,.75,0Z"/><path d="M344,159.75V159a.38.38,0,0,0-.75,0v.75a.38.38,0,0,0,.75,0Z"/><path d="M366.62,160.44a16.64,16.64,0,0,0,0-1.73.38.38,0,0,0-.37-.37c-.81.09-.63,1.32-.63,1.9l.74-.1a2.92,2.92,0,0,1,.11-1.28.38.38,0,0,0-.73-.2,3.81,3.81,0,0,0-.1,1.68c.06.42.73.31.73-.1s-.09-1.06.11-1.33l-.33.19h.1l-.38-.38a16.64,16.64,0,0,1,0,1.73c0,.48.73.48.75,0Z"/><path d="M351.83,165.5v-1.31a.38.38,0,0,0-.75,0v1.31a.38.38,0,0,0,.75,0Z"/><path d="M352.14,165.44c-.11-.07-.07-.53-.07-.63L352,164c0-.48-.77-.48-.75,0,0,.63-.14,1.7.49,2.09.41.25.79-.39.38-.65Z"/><rect class="cls-1" x="356.51" y="169.5" width="4" height="14" transform="translate(717.03 353) rotate(-180)"/><path d="M360.89,169.22c.29-1.07-1.14-2.52-2.14-2.7-1.46-.27-2.36,1.42-2.76,2.56-.17.45.56.65.72.2.27-.77.89-2.13,1.88-2a1.72,1.72,0,0,1,1.1.8c.15.2.55.68.47,1a.38.38,0,0,0,.73.19Z"/><path d="M358.83,166.5v-1.31a.38.38,0,0,0-.75,0v1.31a.38.38,0,0,0,.75,0Z"/><path d="M359.14,166.44c-.11-.07-.07-.53-.07-.63L359,165c0-.48-.77-.48-.75,0,0,.63-.14,1.7.49,2.09.41.25.79-.39.38-.65Z"/></svg>
